<mxfile host="app.diagrams.net" agent="Mozilla/5.0 (X11; Linux x86_64) AppleWebKit/537.36 (KHTML, like Gecko) Chrome/134.0.0.0 Safari/537.36" version="26.1.0">
  <diagram name="Page-1" id="M7ZrIbWw2a4_qFs6wJ8K">
    <mxGraphModel dx="1401" dy="2030" grid="1" gridSize="10" guides="1" tooltips="1" connect="1" arrows="1" fold="1" page="1" pageScale="1" pageWidth="850" pageHeight="1100" math="0" shadow="0">
      <root>
        <mxCell id="0" />
        <mxCell id="1" parent="0" />
        <mxCell id="O7nbzTaHJLSunRiAyVoo-34" value="" style="rounded=0;orthogonalLoop=1;jettySize=auto;html=1;edgeStyle=elbowEdgeStyle;elbow=vertical;" edge="1" parent="1" source="O7nbzTaHJLSunRiAyVoo-15" target="O7nbzTaHJLSunRiAyVoo-30">
          <mxGeometry relative="1" as="geometry" />
        </mxCell>
        <mxCell id="O7nbzTaHJLSunRiAyVoo-35" value="Take input" style="edgeLabel;html=1;align=center;verticalAlign=middle;resizable=0;points=[];" vertex="1" connectable="0" parent="O7nbzTaHJLSunRiAyVoo-34">
          <mxGeometry x="0.2114" y="2" relative="1" as="geometry">
            <mxPoint as="offset" />
          </mxGeometry>
        </mxCell>
        <mxCell id="O7nbzTaHJLSunRiAyVoo-15" value="Controller&lt;br&gt;Device input" style="rounded=0;whiteSpace=wrap;html=1;fillColor=#d5e8d4;strokeColor=#82b366;" vertex="1" parent="1">
          <mxGeometry x="400" y="120" width="120" height="80" as="geometry" />
        </mxCell>
        <mxCell id="O7nbzTaHJLSunRiAyVoo-37" style="rounded=0;orthogonalLoop=1;jettySize=auto;html=1;exitX=-0.017;exitY=0.93;exitDx=0;exitDy=0;exitPerimeter=0;entryX=1;entryY=0.75;entryDx=0;entryDy=0;edgeStyle=elbowEdgeStyle;elbow=vertical;" edge="1" parent="1" source="O7nbzTaHJLSunRiAyVoo-16" target="O7nbzTaHJLSunRiAyVoo-15">
          <mxGeometry relative="1" as="geometry">
            <mxPoint x="660" y="100" as="sourcePoint" />
            <mxPoint x="540" y="161" as="targetPoint" />
          </mxGeometry>
        </mxCell>
        <mxCell id="O7nbzTaHJLSunRiAyVoo-44" value="Model changed&lt;br&gt;messages" style="edgeLabel;html=1;align=center;verticalAlign=middle;resizable=0;points=[];" vertex="1" connectable="0" parent="O7nbzTaHJLSunRiAyVoo-37">
          <mxGeometry x="0.2215" y="1" relative="1" as="geometry">
            <mxPoint x="26" as="offset" />
          </mxGeometry>
        </mxCell>
        <mxCell id="O7nbzTaHJLSunRiAyVoo-43" value="Model changed&lt;br&gt;messages" style="edgeStyle=orthogonalEdgeStyle;rounded=0;orthogonalLoop=1;jettySize=auto;html=1;entryX=1;entryY=0.25;entryDx=0;entryDy=0;" edge="1" parent="1" source="O7nbzTaHJLSunRiAyVoo-16" target="O7nbzTaHJLSunRiAyVoo-17">
          <mxGeometry relative="1" as="geometry">
            <Array as="points">
              <mxPoint x="630" y="-60" />
              <mxPoint x="630" y="-60" />
            </Array>
          </mxGeometry>
        </mxCell>
        <mxCell id="O7nbzTaHJLSunRiAyVoo-16" value="Model&lt;br&gt;&lt;br&gt;Application logic&lt;br&gt;Domain logic&lt;br&gt;State and behavior" style="rounded=0;whiteSpace=wrap;html=1;fillColor=#f8cecc;strokeColor=#b85450;" vertex="1" parent="1">
          <mxGeometry x="730" y="-80" width="120" height="280" as="geometry" />
        </mxCell>
        <mxCell id="O7nbzTaHJLSunRiAyVoo-26" style="rounded=0;orthogonalLoop=1;jettySize=auto;html=1;edgeStyle=elbowEdgeStyle;elbow=vertical;" edge="1" parent="1" source="O7nbzTaHJLSunRiAyVoo-17">
          <mxGeometry relative="1" as="geometry">
            <mxPoint x="279.9999999999999" y="-40.0344827586207" as="targetPoint" />
          </mxGeometry>
        </mxCell>
        <mxCell id="O7nbzTaHJLSunRiAyVoo-32" value="Display output" style="edgeLabel;html=1;align=center;verticalAlign=middle;resizable=0;points=[];" vertex="1" connectable="0" parent="O7nbzTaHJLSunRiAyVoo-26">
          <mxGeometry x="0.1772" y="3" relative="1" as="geometry">
            <mxPoint as="offset" />
          </mxGeometry>
        </mxCell>
        <mxCell id="O7nbzTaHJLSunRiAyVoo-17" value="View&lt;br&gt;Display layout" style="rounded=0;whiteSpace=wrap;html=1;fillColor=#dae8fc;strokeColor=#6c8ebf;" vertex="1" parent="1">
          <mxGeometry x="400" y="-80" width="120" height="80" as="geometry" />
        </mxCell>
        <mxCell id="O7nbzTaHJLSunRiAyVoo-36" value="View messages" style="edgeStyle=elbowEdgeStyle;rounded=0;orthogonalLoop=1;jettySize=auto;html=1;entryX=0.558;entryY=1.017;entryDx=0;entryDy=0;entryPerimeter=0;elbow=horizontal;" edge="1" parent="1">
          <mxGeometry relative="1" as="geometry">
            <mxPoint x="459.87" y="120" as="sourcePoint" />
            <mxPoint x="459.83000000000004" y="1.3599999999999" as="targetPoint" />
          </mxGeometry>
        </mxCell>
        <mxCell id="O7nbzTaHJLSunRiAyVoo-39" style="rounded=0;orthogonalLoop=1;jettySize=auto;html=1;exitX=1;exitY=0.25;exitDx=0;exitDy=0;entryX=0.022;entryY=0.782;entryDx=0;entryDy=0;entryPerimeter=0;" edge="1" parent="1" source="O7nbzTaHJLSunRiAyVoo-15" target="O7nbzTaHJLSunRiAyVoo-16">
          <mxGeometry relative="1" as="geometry">
            <mxPoint x="530" y="132.74" as="sourcePoint" />
            <mxPoint x="660" y="130" as="targetPoint" />
          </mxGeometry>
        </mxCell>
        <mxCell id="O7nbzTaHJLSunRiAyVoo-47" value="1.Model access&lt;br&gt;2. Messages to change Model&amp;nbsp;" style="edgeLabel;html=1;align=center;verticalAlign=middle;resizable=0;points=[];" vertex="1" connectable="0" parent="O7nbzTaHJLSunRiAyVoo-39">
          <mxGeometry x="-0.0365" relative="1" as="geometry">
            <mxPoint as="offset" />
          </mxGeometry>
        </mxCell>
        <mxCell id="O7nbzTaHJLSunRiAyVoo-30" value="" style="rounded=1;whiteSpace=wrap;html=1;container=0;" vertex="1" parent="1">
          <mxGeometry x="80" y="85" width="200" height="115" as="geometry" />
        </mxCell>
        <mxCell id="O7nbzTaHJLSunRiAyVoo-10" value="" style="sketch=0;pointerEvents=1;shadow=0;dashed=0;html=1;strokeColor=none;fillColor=#434445;aspect=fixed;labelPosition=center;verticalLabelPosition=bottom;verticalAlign=top;align=center;outlineConnect=0;shape=mxgraph.vvd.keyboard;container=0;" vertex="1" parent="1">
          <mxGeometry x="120" y="135" width="63.38" height="45" as="geometry" />
        </mxCell>
        <mxCell id="O7nbzTaHJLSunRiAyVoo-8" value="" style="sketch=0;pointerEvents=1;shadow=0;dashed=0;html=1;strokeColor=none;fillColor=#434445;aspect=fixed;labelPosition=center;verticalLabelPosition=bottom;verticalAlign=top;align=center;outlineConnect=0;shape=mxgraph.vvd.mouse;container=0;" vertex="1" parent="1">
          <mxGeometry x="210.5" y="145" width="17.15" height="35" as="geometry" />
        </mxCell>
        <mxCell id="O7nbzTaHJLSunRiAyVoo-31" value="Device sensors" style="text;html=1;align=center;verticalAlign=middle;whiteSpace=wrap;rounded=0;container=0;" vertex="1" parent="1">
          <mxGeometry x="100" y="95" width="140" height="30" as="geometry" />
        </mxCell>
        <mxCell id="O7nbzTaHJLSunRiAyVoo-40" value="" style="rounded=1;whiteSpace=wrap;html=1;container=0;" vertex="1" parent="1">
          <mxGeometry x="80" y="-75" width="200" height="130" as="geometry" />
        </mxCell>
        <mxCell id="O7nbzTaHJLSunRiAyVoo-1" value="" style="html=1;verticalLabelPosition=bottom;align=center;labelBackgroundColor=#ffffff;verticalAlign=top;strokeWidth=2;strokeColor=#0080F0;shadow=0;dashed=0;shape=mxgraph.ios7.icons.window;container=0;" vertex="1" parent="1">
          <mxGeometry x="106.66666666666666" y="-25" width="146.66666666666669" height="56" as="geometry" />
        </mxCell>
        <mxCell id="O7nbzTaHJLSunRiAyVoo-12" value="Device Output" style="text;html=1;align=center;verticalAlign=middle;whiteSpace=wrap;rounded=0;container=0;" vertex="1" parent="1">
          <mxGeometry x="100" y="-65" width="140" height="28" as="geometry" />
        </mxCell>
        <mxCell id="O7nbzTaHJLSunRiAyVoo-42" style="edgeStyle=orthogonalEdgeStyle;rounded=0;orthogonalLoop=1;jettySize=auto;html=1;exitX=1;exitY=0.75;exitDx=0;exitDy=0;entryX=-0.01;entryY=0.211;entryDx=0;entryDy=0;entryPerimeter=0;" edge="1" parent="1" source="O7nbzTaHJLSunRiAyVoo-17" target="O7nbzTaHJLSunRiAyVoo-16">
          <mxGeometry relative="1" as="geometry" />
        </mxCell>
        <mxCell id="O7nbzTaHJLSunRiAyVoo-46" value="1.Model access&lt;br&gt;2. Messages&amp;nbsp;to change Model&amp;nbsp;" style="edgeLabel;html=1;align=center;verticalAlign=middle;resizable=0;points=[];" vertex="1" connectable="0" parent="O7nbzTaHJLSunRiAyVoo-42">
          <mxGeometry y="-2" relative="1" as="geometry">
            <mxPoint as="offset" />
          </mxGeometry>
        </mxCell>
      </root>
    </mxGraphModel>
  </diagram>
</mxfile>
